# xmcd
#
# Track frame offsets:
#	150
#	20171
#	37518
#	55820
#	72625
#	92317
#	113787
#	133365
#	151262
#	170054
#
# Disc length: 2469 seconds
#
# Revision: 1
# Processed by: cddbd v1.5.2PL0 Copyright (c) Steve Scherf et al.
# Submitted via: audiograbber 1.83.01
#
DISCID=8209a30a
DTITLE=Jeff Laine - Blues Vein
DYEAR=2006
DGENRE=
TTITLE0=Brandenburg
TTITLE1=See You Again
TTITLE2=Fell For You
TTITLE3='67
TTITLE4=The Old Wound
TTITLE5=Queen of Diamonds
TTITLE6=Cheap
TTITLE7=Roundtop Hill
TTITLE8=My Father's Watch
TTITLE9=Ship
EXTD=
EXTT0=
EXTT1=
EXTT2=
EXTT3=
EXTT4=
EXTT5=
EXTT6=
EXTT7=
EXTT8=
EXTT9=
PLAYORDER=
